# xmcd
#
# Track frame offsets:
#   150
#   16306
#   33892
#   47776
#   66125
#   83755
#   100637
#   114908
#   134126
#   148111
#   174755
#   194294
#   218965
#
# Disc length: 3182 seconds
#
# Revision: 0
# Processed by: cddbd v1.5.1PL0 Copyright (c) Steve Scherf et al.
# Submitted via: Media_Universe 3.0
#
DISCID=ae0c6c0d
DTITLE=Clint Black - All American Country
DYEAR=1900
DGENRE=Country
TTITLE0=When My Ship Comes In
TTITLE1=Nothing But The Tailinghts
TTITLE2=A Better Man
TTITLE3=Something That We Do
TTITLE4=State Of Mind
TTITLE5=You Dont Need Me Now
TTITLE6=This Nightlife
TTITLE7=Money Or Love
TTITLE8=Bob Away My Blues
TTITLE9=Are You Sure Waylon Done It This Way
TTITLE10=When I Fall In Love
TTITLE11=Been There
TTITLE12=Like The Rain
EXTD=
EXTT0=
EXTT1=
EXTT2=
EXTT3=
EXTT4=
EXTT5=
EXTT6=
EXTT7=
EXTT8=
EXTT9=
EXTT10=
EXTT11=
EXTT12=
PLAYORDER=
